<svg xmlns="http://www.w3.org/2000/svg" width="22" height="26" viewBox="0 0 22 26">
  <!-- Pointing-finger silhouette stylised as a tactical glove.
       Hot-spot at the tip of the index finger (around 8,1). -->
  <g fill="#0b0c10" stroke="#0b0c10" stroke-width="2" stroke-linejoin="round">
    <path d="M6 1 L10 1 L10 11 L14 11 L15 13 L17 13 L18 15 L18 22 L14 24 L6 24 L4 22 L3 16 L3 12 L5 12 Z"/>
  </g>
  <g fill="#d8b871" stroke="#0b0c10" stroke-width="0.7" stroke-linejoin="round">
    <path d="M6 1 L10 1 L10 11 L14 11 L15 13 L17 13 L18 15 L18 22 L14 24 L6 24 L4 22 L3 16 L3 12 L5 12 Z"/>
  </g>
  <!-- knuckle detail -->
  <path d="M6 13 L8 13 M10 13 L12 13 M13 16 L15 16" stroke="#0b0c10" stroke-width="0.7" fill="none" opacity="0.5"/>
</svg>
