<svg xmlns="http://www.w3.org/2000/svg" viewBox="0 0 512 512"><path fill="#fff" d="M192 32c-44 0-80 36-80 80 0 12 3 24 8 34l-78 78c-22 22-22 58 0 80l66 66c22 22 58 22 80 0l78-78c10 5 22 8 34 8 44 0 80-36 80-80 0-12-3-24-8-34l52-52-58-58-52 52c-10-5-22-8-34-8 0-44-36-80-80-80zm0 50c17 0 30 13 30 30 0 6-2 11-4 16l-12 24 24 12c5 2 10 4 16 4 17 0 30 13 30 30 0 6-2 11-4 16l-72 72c-12 12-30 12-42 0l-66-66c-12-12-12-30 0-42l72-72c5-2 10-4 16-4 17 0 30-13 30-30 0-6 2-11 4-16l8-4z"/><path fill="#fff" d="M256 256l60 60v60h-60l-60 60h120l60-60v-120l-60-60-60 60z"/></svg>
