<svg xmlns="http://www.w3.org/2000/svg" viewBox="0 0 64 64">
  <!-- Spread-wing eagle silhouette. Body in the middle, stepped wings left/right, tail down. -->
  <path d="M32 18
           C 30 18 29 20 29 22
           L 29 26
           C 22 24 14 22 6 20
           C 8 24 12 28 18 30
           C 14 30 10 32 8 34
           C 14 34 20 32 24 30
           C 22 32 20 36 20 40
           L 24 40 L 26 36 L 28 42 L 30 38
           L 32 46 L 34 38 L 36 42 L 38 36 L 40 40 L 44 40
           C 44 36 42 32 40 30
           C 44 32 50 34 56 34
           C 54 32 50 30 46 30
           C 52 28 56 24 58 20
           C 50 22 42 24 35 26
           L 35 22
           C 35 20 34 18 32 18 Z" fill="#000"/>
  <!-- Head detail -->
  <circle cx="32" cy="18" r="3" fill="#000"/>
  <path d="M34 18 L38 17" stroke="#000" stroke-width="1.5" stroke-linecap="round"/>
</svg>
