<svg xmlns="http://www.w3.org/2000/svg" viewBox="0 0 64 64">
  <!-- Oak leaf silhouette — lobed outline, stem at base -->
  <path d="M32 6
           C 26 10 24 16 26 20
           C 18 18 14 24 18 28
           C 14 30 14 36 18 38
           C 14 40 14 46 20 46
           C 20 50 26 52 30 48
           C 30 52 32 54 32 58
           C 32 54 34 52 34 48
           C 38 52 44 50 44 46
           C 50 46 50 40 46 38
           C 50 36 50 30 46 28
           C 50 24 46 18 38 20
           C 40 16 38 10 32 6 Z" fill="#000"/>
  <!-- Central vein -->
  <path d="M32 14 L32 52" stroke="#fff" stroke-width="1.2" opacity="0.3"/>
</svg>
